{"title":"Maze Runner The Scorch Trials TS Cam (SexyPirated97)","uid":12459552,"size":588204948,"categoryP":"video","categoryS":"movies","magnet":"?xt=urn:btih:91c39c27d63daecf677cfd1f9a00d893e393b180&amp;dn=Maze+Runner+The+Scorch+Trials+TS+Cam+%28SexyPirated97%29&amp;tr=udp%3A%2F%2Ftracker.openbittorrent.com%3A80&amp;tr=udp%3A%2F%2Fopen.demonii.com%3A1337&amp;tr=udp%3A%2F%2Ftracker.coppersurfer.tk%3A6969&amp;tr=udp%3A%2F%2Fexodus.desync.com%3A6969","seeders":0,"leechers":1,"uploader":"SexyPirated97","files":1,"time":1442785106,"description":"Format                      : MPEG-4\nFormat profile              : Base Media\nCodec ID                    : isom\nFile size                   : 561 MiB\nDuration                    : 2h 3mn\nOverall bit rate            : 636 Kbps\nWriting application         : Lavf54.63.104\n\nVideo\nID                          : 1\nFormat                      : AVC\nFormat/Info                 : Advanced Video Codec\nFormat profile              : High@L3\nFormat settings, CABAC      : Yes\nFormat settings, ReFrames   : 4 frames\nCodec ID                    : avc1\nCodec ID/Info               : Advanced Video Coding\nDuration                    : 2h 3mn\nSource duration             : 8mn 48s\nBit rate                    : 500 Kbps\nWidth                       : 640 pixels\nHeight                      : 360 pixels\nDisplay aspect ratio        : 16:9\nOriginal display aspect rat : 16:9\nFrame rate mode             : Constant\nFrame rate                  : 29.970 fps\nColor space                 : YUV\nChroma subsampling          : 4:2:0\nBit depth                   : 8 bits\nScan type                   : Progressive\nBits/(Pixel*Frame)          : 0.072\nStream size                 : 441 MiB (79%)\nSource stream size          : 441 MiB (79%)\nWriting library             : x264 core 120 r2151 a3f4407\nEncoding settings           : cabac=1 / ref=3 / deblock=1:0:0 / analyse=0x3:0x113 / me=hex / subme=7 / psy=1 / psy_rd=1.00:0.00 / mixed_ref=1 / me_range=16 / chroma_me=1 / trellis=1 / 8x8dct=1 / cqm=0 / deadzone=21,11 / fast_pskip=1 / chroma_qp_offset=-2 / threads=16 / sliced_threads=0 / nr=0 / decimate=1 / interlaced=0 / bluray_compat=0 / constrained_intra=0 / bframes=3 / b_pyramid=2 / b_adapt=1 / b_bias=0 / direct=1 / weightb=1 / open_gop=0 / weightp=2 / keyint=25 / keyint_min=2 / scenecut=40 / intra_refresh=0 / rc_lookahead=25 / rc=2pass / mbtree=1 / bitrate=500 / ratetol=1.0 / qcomp=0.60 / qpmin=0 / qpmax=69 / qpstep=4 / cplxblur=20.0 / qblur=0.5 / ip_ratio=1.40 / aq=1:1.00\nmdhd_Duration               : 7400145\n\nAudio\nID                          : 2\nFormat                      : AAC\nFormat/Info                 : Advanced Audio Codec\nFormat profile              : LC\nCodec ID                    : 40\nDuration                    : 2h 2mn\nBit rate mode               : Constant\nBit rate                    : 128 Kbps\nChannel(s)                  : 2 channels\nChannel positions           : Front: L R\nSampling rate               : 44.1 KHz\nCompression mode            : Lossy\nStream size                 : 112 MiB (20%)\n\n\n\n                      Screen Shots\n\n &lt;a href=&quot;\nhttps://gyazo.com/7d88958dfef2acc62a24d9679f58d0f5&quot; rel=&quot;nofollow&quot; target=&quot;_NEW&quot;&gt;\nhttps://gyazo.com/7d88958dfef2acc62a24d9679f58d0f5&lt;/a&gt;\n &lt;a href=&quot;\nhttps://gyazo.com/36e172d63d8711dd3c985b56a7c9422e&quot; rel=&quot;nofollow&quot; target=&quot;_NEW&quot;&gt;\nhttps://gyazo.com/36e172d63d8711dd3c985b56a7c9422e&lt;/a&gt;\n &lt;a href=&quot;\nhttps://gyazo.com/567bc662987f1cfe9ea6ab326638a88e&quot; rel=&quot;nofollow&quot; target=&quot;_NEW&quot;&gt;\nhttps://gyazo.com/567bc662987f1cfe9ea6ab326638a88e&lt;/a&gt;","torrent":{"xt":"urn:btih:91c39c27d63daecf677cfd1f9a00d893e393b180","amp;dn":"Maze+Runner+The+Scorch+Trials+TS+Cam+%28SexyPirated97%29","amp;tr":["udp%3A%2F%2Ftracker.openbittorrent.com%3A80","udp%3A%2F%2Fopen.demonii.com%3A1337","udp%3A%2F%2Ftracker.coppersurfer.tk%3A6969","udp%3A%2F%2Fexodus.desync.com%3A6969"],"infoHash":"91c39c27d63daecf677cfd1f9a00d893e393b180","infoHashBuffer":{"type":"Buffer","data":[145,195,156,39,214,61,174,207,103,124,253,31,154,0,216,147,227,147,177,128]},"announce":[],"urlList":[]}}